<?xml version="1.0" encoding="utf-8"?>
<!-- Generator: Adobe Illustrator 16.0.0, SVG Export Plug-In . SVG Version: 6.00 Build 0)  -->
<!DOCTYPE svg PUBLIC "-//W3C//DTD SVG 1.1//EN" "http://www.w3.org/Graphics/SVG/1.1/DTD/svg11.dtd">
<svg version="1.1" xmlns="http://www.w3.org/2000/svg" xmlns:xlink="http://www.w3.org/1999/xlink" x="0px" y="0px" width="30px"
	 height="30px" viewBox="0 0 30 30" enable-background="new 0 0 30 30" xml:space="preserve">
<g id="informacion_1_" display="none">
	<path display="inline" fill-rule="evenodd" clip-rule="evenodd" fill="#7F8080" d="M15,0.505c8.006,0,14.495,6.49,14.495,14.495
		c0,8.006-6.489,14.495-14.495,14.495C6.995,29.495,0.505,23.006,0.505,15C0.505,6.995,6.995,0.505,15,0.505z"/>
	<path display="inline" fill-rule="evenodd" clip-rule="evenodd" fill="#FFFFFF" d="M14.091,13.838
		c0.161-0.413-0.046-0.621-0.23-0.621c-0.851,0-1.955,2.002-2.369,2.002c-0.161,0-0.299-0.161-0.299-0.299
		c0-0.415,1.012-1.381,1.312-1.68c0.92-0.875,2.116-1.542,3.45-1.542c0.99,0,2.048,0.599,1.22,2.831l-1.656,4.485
		c-0.138,0.345-0.391,0.921-0.391,1.289c0,0.16,0.091,0.321,0.275,0.321c0.69,0,1.956-1.955,2.277-1.955
		c0.115,0,0.275,0.138,0.275,0.345c0,0.667-2.69,3.521-5.015,3.521c-0.828,0-1.403-0.391-1.403-1.266
		c0-1.104,0.782-2.99,0.943-3.383L14.091,13.838z M15.333,9.305c0-1.012,0.874-1.84,1.887-1.84c0.921,0,1.588,0.621,1.588,1.564
		c0,1.059-0.874,1.841-1.909,1.841C15.954,10.87,15.333,10.249,15.333,9.305z"/>
</g>
<g id="alerta" display="none">
	<path display="inline" fill-rule="evenodd" clip-rule="evenodd" fill="#F49C27" d="M15,0.505c8.006,0,14.495,6.49,14.495,14.495
		c0,8.006-6.489,14.495-14.495,14.495C6.995,29.495,0.505,23.006,0.505,15C0.505,6.995,6.995,0.505,15,0.505z"/>
	<g display="inline">
		<g>
			<path fill-rule="evenodd" clip-rule="evenodd" fill="#FFFFFF" d="M15.008,17.679c0.811,0,1.467-0.657,1.467-1.467v-6.83
				c0-0.811-0.656-1.467-1.467-1.467c-0.81,0-1.466,0.656-1.466,1.467v6.83C13.542,17.021,14.198,17.679,15.008,17.679z M15,18.884
				c-0.884,0-1.601,0.717-1.601,1.601s0.717,1.601,1.601,1.601s1.601-0.717,1.601-1.601S15.884,18.884,15,18.884z"/>
		</g>
	</g>
</g>
<g id="error" display="none">
	<path display="inline" fill-rule="evenodd" clip-rule="evenodd" fill="#DC2829" d="M15,0.505c8.006,0,14.495,6.49,14.495,14.495
		c0,8.006-6.489,14.495-14.495,14.495C6.995,29.495,0.505,23.006,0.505,15C0.505,6.995,6.995,0.505,15,0.505z"/>
	<g display="inline">
		<g>
			<path fill-rule="evenodd" clip-rule="evenodd" fill="#FFFFFF" d="M20.094,18.105l-3.176-3.176l3.035-3.035
				c0.529-0.529,0.529-1.389,0-1.918s-1.387-0.529-1.918,0L15,13.012l-3.036-3.036c-0.529-0.529-1.388-0.529-1.917,0
				c-0.53,0.529-0.53,1.389,0,1.918l3.036,3.035l-3.176,3.176c-0.529,0.53-0.529,1.389,0,1.918c0.529,0.53,1.388,0.53,1.917,0
				L15,16.848l3.176,3.176c0.529,0.53,1.389,0.53,1.918,0C20.623,19.494,20.623,18.636,20.094,18.105z"/>
		</g>
	</g>
</g>
<g id="ok">
	<path fill-rule="evenodd" clip-rule="evenodd" fill="#65B235" d="M15,0.505c8.006,0,14.495,6.49,14.495,14.495
		c0,8.006-6.489,14.495-14.495,14.495C6.995,29.495,0.505,23.006,0.505,15C0.505,6.995,6.995,0.505,15,0.505z"/>
	<g>
		<g>
			<path fill-rule="evenodd" clip-rule="evenodd" fill="#FFFFFF" d="M20.132,9.183c-0.609-0.352-1.389-0.143-1.741,0.466
				l-4.884,8.459l-2.364-1.364c-0.609-0.352-1.389-0.144-1.741,0.467c-0.352,0.609-0.143,1.388,0.466,1.74l3.233,1.866
				c0.343,0.198,0.734,0.202,1.078,0.073c0.408-0.029,0.796-0.23,1.016-0.611l5.402-9.356C20.95,10.313,20.741,9.535,20.132,9.183z"
				/>
		</g>
	</g>
</g>
</svg>
