<?xml version="1.0" standalone="no"?>
<!DOCTYPE svg PUBLIC "-//W3C//DTD SVG 1.1//EN" "http://www.w3.org/Graphics/SVG/1.1/DTD/svg11.dtd">
<svg xmlns="http://www.w3.org/2000/svg">
<metadata>Copyright (C) 2025 by original authors @ fontello.com</metadata>
<defs>
<font id="iconos" horiz-adv-x="1000" >
<font-face font-family="iconos" font-weight="400" font-stretch="normal" units-per-em="1000" ascent="850" descent="-150" />
<missing-glyph horiz-adv-x="1000" />
<glyph glyph-name="facebook" unicode="&#xe800;" d="M500 638h-142q-14 0-25-15t-11-37v-102h178v-148h-178v-442h-170v442h-152v148h152v86q0 94 59 159t147 65h142v-156z" horiz-adv-x="500" />

<glyph glyph-name="twitter" unicode="&#xe801;" d="M50 773l349-467-352-379h79l308 332 249-332h269l-369 493 327 353h-79l-283-306-229 306h-269z m116-58h124l545-730h-123l-546 730z" horiz-adv-x="999" />

<glyph glyph-name="youtube" unicode="&#xe802;" d="M500 638c2 0 209 0 345-10l6-1c18-1 38-4 57-23l0 0 0 0c8-9 18-42 23-65 6-50 8-100 8-151v-75c0-51-4-101-8-151-5-23-14-55-23-65l0 0 0 0c-19-19-40-22-57-23l-6-1c-134-9-335-10-345-10-11 0-254 2-332 8-5 1-9 2-15 2-20 2-44 6-61 23l0 0 0 0c-8 8-18 41-23 64-5 50-8 101-8 152v74c0 52 4 102 8 152 5 22 14 55 23 64l0 0 0 0c19 19 40 22 57 24l6 1c136 11 343 11 345 11l0 0m0 59l0 0c0 0-210 0-349-10-19-2-62-3-100-42-30-29-41-98-41-98-5-53-9-107-10-158v-75c0-53 4-107 10-160 0 0 10-68 41-98 38-40 88-38 110-43 80-6 340-10 340-10s210 0 350 10c19 2 62 3 100 42 30 30 41 98 41 98 6 53 10 107 10 160v75c0 53-4 107-10 160 0 0-11 68-41 98-38 40-81 41-100 41-141 11-351 11-351 10l0 0z m-89-198v-299l254 149-254 150z" horiz-adv-x="1000" />

<glyph glyph-name="pinterest" unicode="&#xe803;" d="M320 184q-26-130-58-211t-96-129q-6 74-7 120t11 110 22 104 26 99 24 99q-24 52-19 116t48 106 99 20q40-16 44-59t-13-95-32-103-4-90 63-49q68-14 121 38t74 131 11 163-54 128q-62 64-151 70t-163-33-120-117-32-170q4-22 22-52t21-47-17-67q-146 34-140 230 4 138 105 234t233 112q164 18 290-57t144-219q26-176-66-317t-252-129q-22 2-42 9t-30 13-31 21-31 21z" horiz-adv-x="778.3" />

<glyph glyph-name="instagram" unicode="&#xe804;" d="M500 849l0 0m208 1c65 0 126-15 179-55 69-51 105-122 111-207 3-30 2-60 2-91 0-116 0-233 0-350 0-48-6-94-27-138-41-89-112-137-206-154-20-3-40-5-60-5-138 0-276 0-414 0-72 0-138 19-194 66-57 47-87 109-96 182-1 12-3 25-3 37 0 146-1 291 1 436 1 79 27 149 86 205 49 46 108 70 175 72m238-906c66 0 133 0 199 1 18 0 35 1 53 4 65 11 114 44 141 108 13 32 17 67 18 100 2 131 1 261 0 391 0 14 0 28-2 42-9 63-36 114-93 145-32 18-67 24-104 24-139 0-279 0-418 0-13 0-25-1-38-2-71-10-123-46-149-114-11-28-14-57-14-87 0-136-1-272 0-408 0-17 1-34 4-50 13-73 54-123 126-143 24-7 50-10 75-10 67-2 134-1 202-1z m258 410c0-143-116-258-259-258-142 0-257 115-257 258 0 142 116 258 258 258 142 0 258-117 258-258z m-258-165c91 0 166 75 166 165-1 90-75 165-165 165-91 1-166-74-166-165 0-91 74-165 165-165z m267 371c-32 0-57 26-57 58 0 33 26 59 59 58 32 0 58-26 58-58 0-33-27-58-60-58z" horiz-adv-x="1000" />

<glyph glyph-name="linkedin" unicode="&#xe805;" d="M204 692q0-40-29-68t-75-28q-44 0-72 28t-28 68q0 42 28 69t74 27 73-27 29-69z m-198-790v618h192v-618h-192z m306 420q0 86-4 198h166l10-86h4q60 100 190 100 100 0 161-67t61-199v-366h-192v342q0 134-98 134-70 0-98-72-6-12-6-48v-356h-194v420z" horiz-adv-x="900.4" />

<glyph glyph-name="whatsapp" unicode="&#xe806;" d="M19-142c21 79 42 155 63 231 4 13 4 24-3 36-154 292 20 646 345 705 268 49 523-134 565-403 42-270-147-523-416-558-98-13-191 4-280 46-11 5-25 6-37 3-73-18-146-38-219-57-5-1-10-2-18-3z m117 116c8 2 14 2 19 3 38 10 76 20 114 31 13 4 24 2 36-5 81-48 169-65 261-52 220 33 372 235 344 454-36 275-337 433-584 307-211-108-285-370-161-573 8-13 10-23 6-38-12-41-23-82-35-127z m499 143c-59 6-114 28-163 59-79 49-138 117-184 196-20 33-30 70-25 109 5 33 19 60 43 82 28 26 71 17 85-18 11-26 23-51 32-77 3-10 0-22-3-32-2-7-8-12-13-18-25-32-24-32-1-66 38-54 87-93 147-119 14-5 24-4 32 7 11 14 22 27 32 40 8 11 17 16 30 10 32-16 65-31 97-47 5-3 10-10 10-15 1-29-4-56-28-76-26-22-56-35-91-35z" horiz-adv-x="1000" />

<glyph glyph-name="google-plus" unicode="&#xe807;" d="M319 389v-107h179c-7-46-54-135-179-135-110 0-197 89-197 197s89 197 197 197c62 0 103-27 126-49l86 82c-54 51-126 83-212 83-177 0-319-140-319-313s142-312 319-312c184 0 304 126 304 304 0 21-1 36-4 52h-300v1z m590 0v89h-90v-89h-91v-89h91v-89h90v89h91v89h-91z" horiz-adv-x="1000" />

<glyph glyph-name="google" unicode="&#xe808;" d="M0 344c0 276 224 500 500 500 111 0 217-36 305-104l-116-150c-55 41-120 64-189 64-171 0-309-139-309-310s138-309 309-309c138 0 254 90 295 214h-295v190h500v-95c0-276-224-500-500-500s-500 224-500 500z" horiz-adv-x="1000" />

<glyph glyph-name="search" unicode="&#xe809;" d="M875-67c-12 0-21 4-29 13l-225 225c-58-46-129-71-204-71-184 0-334 150-334 333 0 184 150 334 334 334s333-150 333-334c0-75-25-145-71-204l225-225c17-17 17-42 0-58-8-9-16-13-29-13z m-458 750c-138 0-250-112-250-250 0-137 112-250 250-250s250 113 250 250c0 138-113 250-250 250z" horiz-adv-x="1000" />

<glyph glyph-name="user-1" unicode="&#xe80a;" d="M500 350c-117 0-208 92-208 208s91 209 208 209 208-92 208-209-91-208-208-208z m0 333c-71 0-125-54-125-125s54-125 125-125 125 55 125 125-54 125-125 125z m292-750h-584c-25 0-41 17-41 42 0 183 150 333 333 333s333-150 333-333c0-25-16-42-41-42z m-538 84h492c-21 116-121 208-246 208s-225-92-246-208z" horiz-adv-x="1000" />

<glyph glyph-name="shopping-bag" unicode="&#xe80b;" d="M833-67h-666c-13 0-21 4-29 13-9 8-13 21-13 33l42 500c0 21 21 38 41 38h84v41c0 117 91 209 208 209s208-92 208-209v-41h84c21 0 41-17 41-38l42-500c0-12-4-25-12-33-9-9-17-13-30-13z m-620 84h575l-34 416h-46v-41c0-25-16-42-41-42s-42 17-42 42v41h-250v-41c0-25-17-42-42-42s-41 17-41 42v41h-46l-33-416z m162 500h250v41c0 71-54 125-125 125s-125-54-125-125v-41z" horiz-adv-x="1000" />

<glyph glyph-name="ok" unicode="&#xe80c;" d="M875 582l-535-600-340 338 123 124 196-195 420 457z" horiz-adv-x="875" />

<glyph glyph-name="cancel" unicode="&#xe80d;" d="M196 105l247 247-247 243c-16 16-16 39 0 55 16 16 39 16 55 0l247-247 247 251c16 16 39 16 55 0s16-39 0-55c0 0 0 0 0 0l-247-247 247-247c16-16 16-39 0-55-16-16-39-16-55 0 0 0 0 0 0 0l-247 247-247-247c-16-16-39-16-55 0-12 12-12 39 0 55z" horiz-adv-x="1000" />

<glyph glyph-name="attention" unicode="&#xe80e;" d="M905 71c8-14 11-30 11-45 0-53-41-91-90-91h-735c-48 0-91 40-91 91 0 15 4 31 13 45l368 637c15 28 44 45 78 45 32 0 61-17 77-45z m-512 472v-299h133v299h-133z m67-369c-42 0-75-32-75-76 0-41 33-74 75-74s75 33 75 74c0 43-32 76-75 76z" horiz-adv-x="916" />

<glyph glyph-name="info-circled" unicode="&#xe80f;" d="M454 804q190 2 326-130t140-322q2-190-131-327t-323-141q-190-2-327 131t-139 323q-4 190 130 327t324 139z m52-152q-42 0-65-24t-23-50q-2-28 15-44t49-16q38 0 61 22t23 54q0 58-60 58z m-120-594q30 0 84 26t106 78l-18 24q-48-36-72-36-14 0-4 38l42 160q26 96-22 96-30 0-89-29t-115-75l16-26q52 34 74 34 12 0 0-34l-36-152q-26-104 34-104z" horiz-adv-x="919.9" />

<glyph glyph-name="trash-empty" unicode="&#xe810;" d="M286 433v-321q0-8-5-13t-13-5h-36q-8 0-13 5t-5 13v321q0 8 5 13t13 5h36q8 0 13-5t5-13z m143 0v-321q0-8-5-13t-13-5h-36q-8 0-13 5t-5 13v321q0 8 5 13t13 5h36q8 0 13-5t5-13z m142 0v-321q0-8-5-13t-12-5h-36q-8 0-13 5t-5 13v321q0 8 5 13t13 5h36q7 0 12-5t5-13z m72-404v529h-500v-529q0-12 4-22t8-15 6-5h464q2 0 6 5t8 15 4 22z m-375 601h250l-27 65q-4 5-9 6h-177q-6-1-10-6z m518-18v-36q0-8-5-13t-13-5h-54v-529q0-46-26-80t-63-34h-464q-37 0-63 33t-27 79v531h-53q-8 0-13 5t-5 13v36q0 8 5 13t13 5h172l39 93q9 21 31 35t44 15h178q22 0 44-15t30-35l39-93h173q8 0 13-5t5-13z" horiz-adv-x="785.2" />

<glyph glyph-name="up-open" unicode="&#xe811;" d="M939 101l-92-92q-11-10-26-10t-25 10l-296 297-296-297q-11-10-25-10t-26 10l-92 92q-11 11-11 26t11 25l414 414q11 10 25 10t25-10l414-414q11-11 11-25t-11-26z" horiz-adv-x="1000" />

<glyph glyph-name="right-open" unicode="&#xe812;" d="M618 355l-414-415q-11-10-25-10t-26 10l-92 93q-11 11-11 25t11 25l296 297-296 296q-11 11-11 25t11 25l92 93q11 10 26 10t25-10l414-414q10-11 10-25t-10-25z" horiz-adv-x="713.9" />

<glyph glyph-name="down-open" unicode="&#xe813;" d="M939 393l-414-413q-10-11-25-11t-25 11l-414 413q-11 11-11 26t11 25l92 92q11 11 26 11t25-11l296-296 296 296q11 11 25 11t26-11l92-92q11-11 11-25t-11-26z" horiz-adv-x="1000" />

<glyph glyph-name="left-open" unicode="&#xe814;" d="M653 676l-296-296 296-297q11-10 11-25t-11-25l-92-93q-11-10-25-10t-25 10l-414 415q-11 10-11 25t11 25l414 414q10 10 25 10t25-10l92-93q11-10 11-25t-11-25z" horiz-adv-x="713.9" />

<glyph glyph-name="zoom-in" unicode="&#xe815;" d="M571 398v-36q0-7-5-13t-12-5h-125v-125q0-7-6-13t-12-5h-36q-7 0-13 5t-5 13v125h-125q-7 0-12 5t-6 13v36q0 7 6 12t12 5h125v125q0 8 5 13t13 5h36q7 0 12-5t6-13v-125h125q7 0 12-5t5-12z m72-18q0 103-74 176t-176 74-177-74-73-176 73-177 177-73 176 73 74 177z m286-465q0-29-21-50t-51-21-50 21l-191 191q-100-69-223-69-80 0-153 31t-125 84-84 125-31 153 31 152 84 126 125 84 153 31 152-31 126-84 84-126 31-152q0-123-69-223l191-191q21-21 21-51z" horiz-adv-x="927.7" />

<glyph glyph-name="zoom-out" unicode="&#xe816;" d="M571 398v-36q0-7-5-13t-12-5h-322q-7 0-12 5t-6 13v36q0 7 6 12t12 5h322q7 0 12-5t5-12z m72-18q0 103-74 176t-176 74-177-74-73-176 73-177 177-73 176 73 74 177z m286-465q0-29-21-50t-51-21-50 21l-191 191q-100-69-223-69-80 0-153 31t-125 84-84 125-31 153 31 152 84 126 125 84 153 31 152-31 126-84 84-126 31-152q0-123-69-223l191-191q21-21 21-51z" horiz-adv-x="927.7" />

<glyph glyph-name="clock" unicode="&#xe817;" d="M460 810q190 0 325-135t135-325-135-325-325-135-325 135-135 325 135 325 325 135z m0-820q150 0 255 106t105 254q0 150-105 255t-255 105q-148 0-254-105t-106-255q0-148 106-254t254-106z m36 620l0-244 150-150-50-50-170 170 0 274 70 0z" horiz-adv-x="920" />

<glyph glyph-name="calendar" unicode="&#xe818;" d="M800 694q42 0 71-29t29-71v-600q0-40-29-70t-71-30h-700q-40 0-70 30t-30 70v600q0 42 30 71t70 29h46v-100h160v100h290v-100h160v100h44z m0-700v400h-700v-400h700z m-540 800v-170h-70v170h70z m450 0v-170h-70v170h70z" horiz-adv-x="900.4" />

<glyph glyph-name="comment" unicode="&#xe819;" d="M700 694q42 0 71-29t29-71v-350q0-40-29-70t-71-30h-200v-150l-200 150h-200q-40 0-70 30t-30 70v350q0 42 30 71t70 29h600z" horiz-adv-x="799.8" />

<glyph glyph-name="arrows-cw" unicode="&#xe81a;" d="M843 255q0-3 0-4-36-150-150-243t-267-93q-81 0-157 31t-136 88l-72-72q-11-11-25-11t-25 11-11 25v250q0 14 11 25t25 11h250q14 0 25-11t10-25-10-25l-77-77q40-37 90-57t105-20q74 0 139 37t104 99q6 10 29 66 5 13 17 13h107q8 0 13-6t5-12z m14 446v-250q0-14-10-25t-26-11h-250q-14 0-25 11t-10 25 10 25l77 77q-82 77-194 77-75 0-140-37t-104-99q-6-10-29-66-5-13-17-13h-111q-7 0-13 6t-5 12v4q36 150 151 243t268 93q81 0 158-31t137-88l72 72q11 11 25 11t26-11 10-25z" horiz-adv-x="857.4" />

<glyph glyph-name="gift" unicode="&#xe81b;" d="M37 380h420v124h86v-124h420v251h-163c31 61 26 131-18 175-24 25-58 38-95 38-47 0-96-21-133-59-35-35-49-91-54-139-5 48-19 104-54 139-37 38-85 59-133 59-37 0-71-13-95-38-29-29-42-71-37-115 3-21 10-41 19-60h-163v-251z m580 342c20 20 46 33 70 33 9 0 22-2 32-12 21-22 12-69-21-102-16-16-58-27-111-29 3 43 11 91 30 110z m-336 21c10 10 23 12 32 12 24 0 50-13 70-33 19-19 28-67 30-110-53 2-95 13-111 29-17 18-29 40-32 61-1 10-1 28 11 41z m176-442v-457h-356v457h356z m86-457v457h357v-457h-357z" horiz-adv-x="1000" />

<glyph glyph-name="download-alt" unicode="&#xe81c;" d="M0-156v135h1000v-135h-1000z m88 586h228v414h370v-414h228l-414-385z" horiz-adv-x="1000" />

<glyph glyph-name="menu-alt-1" unicode="&#xe81d;" d="M833 58h-666c-25 0-42 17-42 42s17 42 42 42h666c25 0 42-17 42-42s-17-42-42-42z m-333 250h-333c-25 0-42 17-42 42s17 42 42 42h333c25 0 42-17 42-42s-17-42-42-42z m333 250h-666c-25 0-42 17-42 42s17 42 42 42h666c25 0 42-17 42-42s-17-42-42-42z" horiz-adv-x="1000" />

<glyph glyph-name="heart-empty" unicode="&#xe81e;" d="M929 511q0 46-12 80t-31 55-46 33-52 18-55 4-62-14-62-36-48-40-34-34q-10-13-27-13t-27 13q-14 15-34 34t-48 40-62 36-62 14-55-4-52-18-46-33-31-55-12-80q0-93 105-198l324-312 324 312q105 105 105 198z m71 0q0-123-128-251l-347-335q-10-10-25-10t-25 10l-348 336q-5 5-15 15t-31 37-38 54-30 67-13 77q0 123 71 192t196 70q34 0 70-12t67-33 54-38 42-38q20 20 42 38t54 38 67 33 70 12q125 0 196-70t71-192z" horiz-adv-x="1000" />

<glyph glyph-name="heart" unicode="&#xe81f;" d="M500-85q-14 0-25 10l-348 336q-5 5-15 15t-31 37-38 54-30 67-13 77q0 123 71 192t196 70q34 0 70-12t67-33 54-38 42-38q20 20 42 38t54 38 67 33 70 12q125 0 196-70t71-192q0-123-128-251l-347-335q-10-10-25-10z" horiz-adv-x="1000" />

<glyph glyph-name="star-empty" unicode="&#xe820;" d="M635 284l170 166-235 34-106 213-105-213-236-34 171-166-41-235 211 111 211-111z m294 199q0-12-15-27l-202-197 48-279q0-4 0-12 0-28-23-28-10 0-22 7l-251 132-250-132q-12-7-23-7t-17 9-6 19q0 4 1 12l48 279-203 197q-14 15-14 27 0 21 31 26l280 40 126 254q11 23 27 23t28-23l125-254 280-40q32-5 32-26z" horiz-adv-x="927.7" />

<glyph glyph-name="star" unicode="&#xe821;" d="M929 483q0-12-15-27l-202-197 48-279q0-4 0-12 0-11-6-19t-17-9q-10 0-22 7l-251 132-250-132q-12-7-23-7t-17 9-6 19q0 4 1 12l48 279-203 197q-14 15-14 27 0 21 31 26l280 40 126 254q11 23 27 23t28-23l125-254 280-40q32-5 32-26z" horiz-adv-x="927.7" />

<glyph glyph-name="star-half-alt" unicode="&#xe822;" d="M662 310l143 140-198 29-37 5-17 34-89 179v-537l33-17 178-94-34 198-6 37z m252 146l-202-197 48-279q2-19-4-29t-19-11q-9 0-22 7l-251 132-250-132q-13-7-23-7-12 0-19 11t-3 29l48 279-203 197q-18 18-13 33t30 20l280 40 126 254q11 23 27 23t28-23l125-254 280-40q25-4 31-20t-14-33z" horiz-adv-x="927.7" />

<glyph glyph-name="truck" unicode="&#xe823;" d="M708 17c-54 0-100 33-116 83h-9c-16 0-29 4-41 13-13-9-25-13-42-13h-92c-16-50-62-83-116-83s-100 33-117 83h-8c-46 0-84 38-84 83v417c0 46 38 83 84 83h333c46 0 83-37 83-83h109c21 0 41-8 58-25l142-142c16-16 25-37 25-58v-192c0-45-38-83-84-83h-8c-17-50-62-83-117-83z m-41 125c0-25 16-42 41-42s42 17 42 42-17 41-42 41-41-16-41-41z m-417 0c0-25 17-42 42-42s41 17 41 42-16 41-41 41-42-16-42-41z m333 41l0 0 9 0c16 50 62 84 116 84 55 0 100-34 117-84h8v192l-141 142h-109v-334z m-175 0h92v417h-333v-417h8c17 50 63 84 117 84s100-34 116-84z" horiz-adv-x="1000" />

<glyph glyph-name="mail" unicode="&#xe824;" d="M792 17h-584c-70 0-125 54-125 125v375c0 0 0 0 0 0v41c0 71 55 125 125 125h584c71 0 125-54 125-125v-41c0 0 0 0 0 0v-375c0-71-54-125-125-125z m-625 421v-296c0-25 16-42 41-42h584c25 0 41 17 41 42v296l-262-175c-42-30-96-30-138 0l-266 175z m0 100l308-209c13-8 33-8 46 0l308 209v20c0 25-16 42-41 42h-580c-25 0-41-17-41-42v-20z" horiz-adv-x="1000" />

<glyph glyph-name="phone" unicode="&#xe825;" d="M792-67h-42c-367 0-667 300-667 667v42c0 71 55 125 125 125h138c37 0 67-21 79-59l63-187c12-38-5-83-42-100l-58-29c37-67 91-117 154-154l29 58c17 37 62 54 100 42l187-63c34-12 59-42 59-79v-138c0-71-54-125-125-125z m-446 750h-138c-25 0-41-16-41-41v-42c0-321 262-583 583-583h42c25 0 41 16 41 41v138l-187 62-46-95c-8-21-33-30-54-21-113 50-200 137-250 250-8 21 0 46 21 54l96 46-67 191z" horiz-adv-x="1000" />

<glyph glyph-name="location-marker" unicode="&#xe826;" d="M500-88c-33 0-62 13-87 38l-175 175c-75 71-113 167-113 267s38 196 108 266c71 71 167 109 267 109 100 0 196-38 267-109 146-145 146-383 0-529l0 0-175-175c-29-29-59-42-92-42z m0 771c-79 0-150-29-204-87s-88-125-88-204 30-150 88-204l175-175c17-17 42-17 58 0l175 175c113 112 113 300 0 412-54 54-125 83-204 83z m238-529l0 0 0 0z m-238 71c-92 0-167 75-167 167s75 166 167 166c92 0 167-75 167-166s-75-167-167-167z m0 250c-46 0-83-37-83-83 0-46 37-84 83-84 46 0 83 38 83 84 0 46-37 83-83 83z" horiz-adv-x="1000" />

<glyph glyph-name="pencil" unicode="&#xe827;" d="M718 674q32-32 47-64t15-48v-16l-252-252-290-288-238-52 50 240 290 288 252 252q54 12 126-60z m-494-640l24 24q-2 44-52 94-22 22-45 35t-35 13l-14 2-22-24-18-80q28-16 46-34 24-24 36-48z" horiz-adv-x="780.3" />

<glyph glyph-name="adjustments" unicode="&#xe828;" d="M750-25c-25 0-42 17-42 42v50c-50 16-83 62-83 116s33 100 83 117v383c0 25 17 42 42 42s42-17 42-42v-383c50-17 83-62 83-117s-33-100-83-116v-50c0-25-17-42-42-42z m0 167c25 0 42 16 42 41s-17 42-42 42-42-17-42-42 17-41 42-41z m-250-167c-25 0-42 17-42 42v383c-50 17-83 63-83 117s33 100 83 116v50c0 25 17 42 42 42s42-17 42-42v-50c50-16 83-62 83-116s-33-100-83-117v-383c0-25-17-42-42-42z m0 583c-25 0-42-16-42-41s17-42 42-42 42 17 42 42-17 41-42 41z m-250-583c-25 0-42 17-42 42v50c-50 16-83 62-83 116s33 100 83 117v383c0 25 17 42 42 42s42-17 42-42v-383c50-17 83-62 83-117s-33-100-83-116v-50c0-25-17-42-42-42z m0 167c25 0 42 16 42 41s-17 42-42 42-42-17-42-42 17-41 42-41z" horiz-adv-x="1000" />

<glyph glyph-name="signal" unicode="&#xe829;" d="M688-103v894h111v-894h-111z m-224 0v671h112v-671h-112z m-223 0v448h112v-448h-112z m-223 0v224h112v-224h-112z" horiz-adv-x="817.4" />

<glyph glyph-name="share" unicode="&#xe82a;" d="M750-67c-92 0-167 75-167 167 0 13 0 25 5 33l-213 109c-29-38-75-59-125-59-92 0-167 75-167 167s75 167 167 167c50 0 96-21 125-59l213 105c-5 12-5 25-5 37 0 92 75 167 167 167s167-75 167-167-75-167-167-167c-50 0-96 21-125 59l-212-104c4-13 4-25 4-38s0-25-4-33l212-104c29 37 75 58 125 58 92 0 167-75 167-167s-75-171-167-171z m-75 205c-4-13-8-25-8-38 0-46 37-83 83-83s83 37 83 83-37 83-83 83c-33 0-58-16-75-45l0 0z m-425 295c-46 0-83-37-83-83 0-46 37-83 83-83 33 0 58 16 75 46 0 0 0 0 0 0 4 12 8 25 8 37 0 13-4 25-8 38-17 29-42 45-75 45z m500 250c-46 0-83-37-83-83 0-12 4-25 8-37l0 0c17-30 42-46 75-46 46 0 83 37 83 83s-37 83-83 83z" horiz-adv-x="1000" />

<glyph glyph-name="help-circled" unicode="&#xe82b;" d="M454 804q190 2 326-130t140-322q2-190-131-327t-323-141q-190-2-327 131t-139 323q-4 190 130 327t324 139z m-2-740q30 0 49 19t19 47q2 30-17 49t-49 19h-2q-28 0-47-18t-21-46q0-30 19-49t47-21h2z m166 328q26 34 26 78 0 78-54 116-52 38-134 38-64 0-104-26-68-42-72-146v-4h110v4q0 26 16 54 16 24 54 24 40 0 52-20 16-20 16-44 0-18-16-40-8-12-20-20l-6-4q-6-4-16-11t-20-15-21-17-17-17q-14-20-18-78v-8h108v4q0 12 4 28 6 20 28 36l28 18q46 34 56 50z" horiz-adv-x="919.9" />

<glyph glyph-name="close" unicode="&#xe82c;" d="M19-44l394 394-394 394c-25 25-25 62 0 87 25 25 62 25 87 0l394-393 394 393c25 25 62 25 87 0 25-25 25-62 0-87 0 0 0 0 0 0l-393-394 393-394c25-25 25-62 0-87-25-25-62-25-87 0 0 0 0 0 0 0l-394 394-394-394c-25-25-62-25-87 0-25 25-25 62 0 87z" horiz-adv-x="1000" />

<glyph glyph-name="spotify" unicode="&#xe82d;" d="M751 18c-5 0-11 3-17 5 0 0-9 6-23 12-14 9-38 20-64 32-54 23-130 49-216 61-26 2-52 5-75 5-110 3-194-11-229-20-11-3-17-6-17-6-20-6-41 6-46 26-6 21 5 41 26 47 3 0 112 34 268 28 26 0 52-2 81-5 191-23 333-113 333-116 17-12 23-35 11-52-8-12-20-17-32-17z m133 219c-8-14-23-23-40-23-9 0-14 3-23 6 0 0-3 0-6 3-6 3-11 6-20 11-17 9-44 24-75 35-64 26-151 58-249 69-29 3-58 6-87 6-124 3-222-14-263-23-14-3-20-6-20-6-23-5-49 6-58 32-5 26 6 49 32 58 3 0 130 38 312 32 29 0 61-3 96-6 219-26 384-130 387-133 20-12 26-40 14-61z m107 203c-11-18-29-26-49-26-8 0-17 3-26 8 0 0-3 0-6 3-5 3-11 9-23 12-20 11-49 26-86 43-76 32-180 67-295 81-35 3-70 6-101 9-171 5-301-26-327-32-3 0-6 0-6 0-29-9-60 9-69 37s9 61 38 70c2 0 153 46 367 37 34 0 72-2 112-8 260-32 451-153 457-156 23-18 32-52 14-78z" horiz-adv-x="1000" />

<glyph glyph-name="telegram" unicode="&#xe82e;" d="M765-74c-7 0-15 0-15 7l-371 243c-8 0-8 7-8 15s0 15 8 23l121 151-204-129c-16-7-23-7-31 0l-242 122c-15 0-23 7-23 22s8 23 23 31l848 303c15 7 23 0 31-8 15-7 15-15 15-30l-121-728c0-15-8-15-16-22-7 0-7 0-15 0z m-326 280l296-197 106 629-727-265 166-76 356 227c16 8 31 8 38-7 15-15 15-31 0-46l-235-265z" horiz-adv-x="992" />

<glyph glyph-name="tiktok" unicode="&#xe82f;" d="M799 613c-6 3-12 7-18 11-17 11-33 24-46 39-35 40-48 80-53 108h1c-4 24-3 39-3 39h-158v-611c0-8 0-16 0-24 0-1 0-2 0-3 0-1 0-1 0-1 0-1 0-1 0-1-4-44-29-84-68-106-19-11-42-17-65-17-73 0-133 59-133 134 0 74 59 134 133 134 14 0 28-3 41-7l0 161c-81 10-163-14-226-66-27-24-50-52-67-84-7-11-32-57-35-132-2-43 11-87 17-105v0c4-11 18-48 43-79 19-24 42-46 68-64v0l0 0c77-52 162-49 162-49 14 1 63 0 119 27 62 29 97 73 97 73 23 26 41 56 53 88 15 37 19 83 19 101v323c2-1 28-18 28-18s36-23 94-39c41-10 96-13 96-13v157c-19-2-58 4-99 24z" horiz-adv-x="1000" />

<glyph glyph-name="spin6" unicode="&#xe839;" d="M855 9c-189-190-520-172-705 13-190 190-200 494-28 695 11 13 21 26 35 34 36 23 85 18 117-13 30-31 35-76 16-112-5-9-9-15-16-22-140-151-145-379-8-516 153-153 407-121 542 34 106 122 142 297 77 451-83 198-305 291-510 222l0 1c236 82 492-24 588-252 71-167 37-355-72-493-11-15-23-29-36-42z" horiz-adv-x="1000" />

<glyph glyph-name="cart" unicode="&#xe83f;" d="M946 680c-11 14-26 26-43 33-16 8-34 12-53 12h-673l-2 15c-4 30-18 58-41 78-23 21-52 32-83 32l-9 0c-11 0-22-4-30-12-8-8-12-19-12-30 0-11 4-21 12-29 8-8 19-12 30-12h9c10 0 20-4 28-11 7-7 12-16 13-26l58-488c6-50 30-97 68-131 38-34 88-53 139-53h435c11 0 21 5 29 13 8 7 12 18 12 29 0 11-4 22-12 30-8 7-18 12-29 12h-435c-26 0-51 8-72 23-21 15-37 36-46 60h497c49 0 96 17 133 49 38 31 63 74 72 122l33 182c3 18 2 36-3 54-4 18-13 34-25 48z m-54-87l-33-182c-5-29-20-55-43-74-22-18-51-29-80-29h-510l-39 334h663c7 0 13-2 18-4 6-3 11-6 15-11 4-5 6-10 8-16 2-6 2-12 1-18z m-600-743c46 0 83 37 83 83 0 46-37 84-83 84-46 0-84-38-84-84 0-46 38-83 84-83z m416 0c46 0 84 37 84 83 0 46-38 84-84 84-46 0-83-38-83-84 0-46 37-83 83-83z" horiz-adv-x="1000" />

<glyph glyph-name="user" unicode="&#xe840;" d="M373 360c159 1 241 84 244 246-3 156-90 243-245 244-157-1-244-94-244-244 0-158 87-245 245-246z m-1 445c130-1 197-68 199-199-2-136-65-199-198-200-134 1-197 64-200 199 3 134 68 199 199 200z m0-559c-239-2-368-131-372-373 0-13 10-23 22-23h1c12 0 22 10 23 22 3 220 110 327 326 328 213-1 323-111 327-328 0-12 12-23 23-22 13 0 23 10 23 23-5 239-137 371-373 373z" horiz-adv-x="745" />

<glyph glyph-name="user2" unicode="&#xe841;" d="M500 350c49 0 98 15 139 42 41 28 73 67 92 112 19 46 24 96 14 145-9 48-33 93-68 128-35 35-80 59-128 68-49 10-99 5-145-14-45-19-84-51-112-92-27-41-42-90-42-139 0-66 26-130 73-177 47-47 111-73 177-73z m0 417c33 0 65-10 93-28 27-19 48-45 61-75 13-31 16-64 10-96-7-33-23-62-46-86-23-23-53-39-85-45-33-7-66-4-97 9-30 13-56 34-75 61-18 28-28 60-28 93 0 44 18 87 49 118 31 31 74 49 118 49z m0-500c-99 0-195-40-265-110-70-71-110-166-110-265 0-11 4-22 12-30 8-8 19-12 30-12 11 0 21 4 29 12 8 8 12 19 12 30 0 77 31 151 86 206 55 55 129 85 206 85 77 0 152-30 206-85 55-55 86-129 86-206 0-11 4-22 12-30 8-8 18-12 29-12 11 0 22 4 30 12 8 8 12 19 12 30 0 99-40 194-110 265-70 70-166 110-265 110z" horiz-adv-x="1000" />

<glyph glyph-name="search-1" unicode="&#xe842;" d="M982-44l-194 194c145 194 106 468-88 613-194 145-468 105-613-88-145-194-105-468 89-613 155-117 369-117 524 0l194-194c24-24 63-24 88 0 24 25 24 64 0 88l0 0z m-543 143c-172 0-311 140-311 312 0 172 139 311 311 311 172 0 312-139 312-311 0-172-140-312-312-312z" horiz-adv-x="1000" />

<glyph glyph-name="search-2" unicode="&#xe843;" d="M1000-91l-261 261c68 83 101 189 93 295-8 107-57 207-136 279-79 71-183 110-290 107-107-2-209-46-285-122-76-76-119-177-122-285-3-107 36-211 108-290 71-79 171-128 278-136 107-8 212 25 295 93l261-261 59 59z m-583 191c-66 0-131 20-185 56-55 37-98 89-123 150-25 61-32 128-19 192 13 65 44 124 91 171 47 47 106 78 171 91 64 13 131 7 192-19 61-25 113-68 150-122 37-55 56-120 56-186 0-88-35-173-98-235-62-63-147-98-235-98z" horiz-adv-x="1000" />

<glyph glyph-name="mobilidad" unicode="&#xe900;" d="M985 178l6 17c0 0 0 1 0 2 7 53-15 86-36 112-20 24-49 40-62 46-5 21-22 93-51 184-35 112-78 127-82 128-7 2-14-2-16-8-4-12-15-28-24-42-3-4-6-8-8-12-7-11-19-22-31-32-7-6-13-12-19-18-3-3-5-7-4-11 1-4 4-7 7-9 9-5 40-46 52-69 10-20 38-137 22-190-16-52-99-88-165-88-37 0-70 22-97 47 23 40 41 108 35 142-7 46-33 62-182 73-112 9-162-45-182-80-44 3-70 20-84 35-15 15-50 71-16 125 32 50 111 68 164 70l0-15c-2-38 29-71 68-72l66-2c0 0 1 0 1 0 21 0 37 17 38 37l1 13 64-2c0 0 0 0 0 0 7 0 13 6 13 13 0 7-5 13-12 13l-64 1 1 63 64-1c0 0 0 0 1 0 7 0 12 5 13 12 0 7-6 13-13 13l-64 2v2c1 21-16 38-37 39l-65 1c-39 1-72-30-73-69l0-23c-54-1-146-19-186-81-46-68-3-136 17-157 16-16 44-35 89-41-18-12-32-29-40-52-24-79 33-183 35-187 3-4 7-7 11-7h6c6-73 68-131 143-131s136 58 143 131h272c7-73 68-131 143-131 80 0 144 65 144 144 0 20-4 40-12 58 3 1 5 4 6 7z m-701 515c1 0 1 0 2 0l65-2c7 0 12-6 12-13l-3-129c-1-7-6-12-13-12l-66 2c-25 1-45 22-44 47 0 0 0 0 0 0l2 62c0 25 21 45 45 45z m43-267c153-12 156-28 160-53 4-26-10-83-28-118-19 21-33 42-40 53-34 54-105 69-142 69h-1c-22 0-65 0-103-12 19 28 62 67 154 61z m-209-140c6 19 19 33 35 42 0 0 1 0 1 1 38 22 96 22 122 22h1c41 0 96-18 120-57 9-14 27-41 53-68 1-1 2-2 3-3 0 0 0 0 0 0 32-32 73-60 120-60 76 0 169 40 189 106 18 60-10 183-24 209-8 16-31 50-49 69 2 2 5 4 7 7 13 12 27 24 36 37 2 3 5 7 8 11 7 11 15 23 21 34 13-11 36-39 56-105 34-107 51-187 51-188 1-4 4-7 8-9 0 0 37-16 58-42 23-28 36-53 31-91l-1-2c-2 1-4 1-6 2-34 13-97 31-145 9-61-28-77-51-97-82 0-1-1-2-2-3h-566c-12 24-48 103-30 161z m195-186c-5-8-14-14-24-14s-20 6-24 14h48z m-24-105c-61 0-111 47-118 106h67c5-23 26-40 51-40s45 17 51 40h66c-6-60-56-106-117-106z m559 0c-62 0-113 48-118 108 0 0 0 0 0 1 1 1 2 1 3 2 2 3 4 6 6 9 19 29 31 48 86 72 2 1 5 2 7 3 1 1 2 1 3 1 2 1 4 1 5 2 1 0 3 0 4 0 1 1 3 1 4 1 1 0 3 1 4 1s3 0 5 0c1 0 2 0 4 0s3 0 4 0c2 0 3 0 4 0s3 0 5 0c1 0 2 0 4 0s3 0 4 0c2 0 3-1 4-1s3 0 5 0c1 0 2-1 4-1s3 0 4 0c1 0 3-1 4-1 1 0 3 0 4-1 1 0 3 0 4-1 1 0 3 0 4-1 1 0 2 0 4-1s3-1 4-1c1 0 2 0 3-1 2 0 3-1 4-1 1 0 2 0 3-1 2 0 3-1 4-1 1-1 2-1 3-1 1-1 2-1 4-2 1 0 1 0 2-1 1 0 1 0 1 0 13-20 20-42 20-66-1-65-54-118-119-118z m0 171c-29 0-53-23-53-53s23-53 53-53 53 24 53 53-24 53-53 53z m0-80c-15 0-27 12-27 27s12 27 27 27 27-12 27-27-12-27-27-27z" horiz-adv-x="1000" />

<glyph glyph-name="indumentaria" unicode="&#xe901;" d="M993 547l-159 177c-1 2-3 3-5 3l-134 55c-3 1-6 1-8 1-1 0-2 0-4 0-4 0-8-2-10-6-31-12-116-43-173-43-70 0-171 48-172 48-2 1-4 1-6 1 0 0 0 0 0 0-2 0-5 0-6-1l-137-54c-1 0-2 0-3-1-2-1-4-3-5-5l-163-175c-4-4-5-10-1-15l110-159c3-5 10-7 15-4l87 41v-495c0-7 5-12 12-12h538c7 0 12 6 12 12v499l86-45c6-3 13-1 16 4l110 159c4 4 4 11 0 15z m-324 203c-16-70-105-126-163-126-64 0-158 41-170 128 34-14 107-42 165-42 54 0 129 25 168 40z m-538-355l-98 143 147 157c32-58 59-134 41-258l-90-42z m112-468v495c23 140-9 227-43 288l112 44c11-105 120-154 194-154 79 0 178 72 189 156l108-44c-34-60-66-145-46-281v-504h-514z m627 469l-90 47c-17 122 11 198 44 255l144-161-98-141z m-202 143h-96c-12 0-21-9-21-21v-78c0-31 25-56 56-56h25c31 0 57 25 57 56v78c0 12-10 21-21 21z m3-99c0-21-18-38-39-38h-25c-21 0-38 17-38 38v78c0 2 1 3 3 3h96c1 0 3-1 3-3v-78z" horiz-adv-x="1000" />

<glyph glyph-name="tv" unicode="&#xe902;" d="M946 683h-891c-20 0-35-15-35-35v-503c0-19 15-35 35-35h377v-81h-97c-7 0-12-5-12-12s5-13 12-13h334c7 0 12 6 12 13s-5 12-12 12h-110v81h153v-71c0-19 15-34 34-34h127c19 0 34 15 34 34v71h39c19 0 35 16 35 35v503c0 20-16 35-35 35z m-412-654h-77v81h77v-81z m348 10c0-5-4-9-9-9h-127c-5 0-9 4-9 9v269c0 5 4 9 9 9h127c0 0 1 0 1 0 2 0 4-1 5-2 2-2 3-4 3-7v-269z m74 106c0-5-5-10-10-10h-39v174c0 18-15 34-34 34h-127c-18 0-34-15-34-34v-174h-657c-6 0-10 5-10 10v503c0 6 4 10 10 10h891c5 0 10-4 10-10v-503z m-147 34c-29 0-53-24-53-53s24-54 53-54 54 24 54 54-24 53-54 53z m0-82c-15 0-28 13-28 29s13 28 28 28 29-13 29-28c0-16-13-29-29-29z m-526 514c5-5 5-13 0-17l-170-170c-3-3-6-4-9-4s-7 1-9 4c-5 5-5 13 0 17l170 170c5 5 13 5 18 0z m-188-86c-5 5-5 13 0 18l68 68c5 5 13 5 17 0 5-5 5-13 0-18l-67-68c-3-2-6-3-9-3s-7 1-9 3z m664-263c0 8 6 14 13 14s14-6 14-14-6-13-14-13c-7 0-13 6-13 13z m74 0c0 8 6 14 14 14s13-6 13-14-6-13-13-13c-8 0-14 6-14 13z m-74-54c0 7 6 13 13 13s14-6 14-13c0-8-6-14-14-14s-13 6-13 14z m74 0c0 7 6 13 14 13s13-6 13-13c0-8-6-14-13-14s-14 6-14 14z" horiz-adv-x="1000" />

<glyph glyph-name="electrodomesticos" unicode="&#xe903;" d="M780 826h-589c-39 0-70-31-70-69v-826c0-39 31-70 70-70h589c38 0 69 31 70 70v826c0 38-31 69-70 69z m-589-25h589c25 0 45-20 45-44v-161h-679v161c0 24 20 44 45 44z m589-915h-589c-25 0-45 20-45 45v640h678v-640c0-25-20-45-44-45z m-291 641c-161 0-291-131-291-291s130-291 291-291c160 0 291 130 291 291s-131 291-291 291z m0-557c-147 0-266 119-266 266s119 266 266 266 266-120 266-266-120-266-266-266z m-120 773h-171v-102h171v102z m-25-77h-121v52h120v-52z m111 22v49c0 7 6 13 13 13s12-6 12-13v-49c0-7-5-12-12-12s-13 5-13 12z m77 0v49c0 7 5 13 12 13s13-6 13-13v-49c0-7-6-12-13-12s-12 5-12 12z m70 0v49c0 7 5 13 12 13s13-6 13-13v-49c0-7-6-12-13-12s-12 5-12 12z m123-47c30 0 55 24 55 54s-25 55-55 55-54-25-54-55c0-30 24-54 54-54z m0 84c16 0 30-13 30-30 0-16-13-29-30-29s-29 13-29 29c0 16 13 30 29 30z m-23-461c-14 105-104 186-213 186-119 0-215-96-215-214 0-119 97-215 215-215 118 0 214 97 214 215 0 8 0 17-1 25 0 1 0 2 0 3z m-213 161c94 0 172-68 187-158-18-12-77-45-158-40-41 3-69 16-97 28-35 16-68 31-118 18 17 86 94 152 186 152z m0-379c-105 0-190 85-190 190 0 3 0 6 0 9 47 16 76 3 111-13 28-12 60-27 105-30 7 0 14 0 20 0 67 0 117 22 142 37 0-1 0-2 0-3 1-105-84-190-188-190z" horiz-adv-x="1000" />

<glyph glyph-name="tecnologia" unicode="&#xe904;" d="M892 503h-92v279c0 25-24 45-53 45h-568c-29 0-53-20-53-45v-793c0-25 24-46 53-46h400v-47c0-20 15-36 33-36h280c18 0 32 16 32 36v570c0 20-14 37-32 37z m-713-534c-14 0-27 9-27 20v793c0 10 13 19 27 19h568c15 0 27-9 27-19v-279h-162c-19 0-33-16-33-37v-497h-400z m719-73c0-6-4-10-6-10h-280c-4 0-7 5-7 10v570c0 1 0 2 0 2 0 0 0 0 0 0 1 5 4 8 6 8h280c3 0 7-4 7-10v-570z m-109 58c0-7-6-13-13-13h-47c-7 0-13 6-13 13s6 13 13 13h47c7 0 13-6 13-13z m-267 81c0-7-6-13-13-13h-92c-7 0-13 6-13 13s6 13 13 13h92c7 0 13-6 13-13z m115 369c-4 0-7 1-9 4-5 5-5 13 0 18l15 16c5 5 14 5 19 0s5-14 0-19l-16-15c-3-3-6-4-9-4z m79 12l-62-62c-2-3-6-4-9-4s-7 1-9 4c-5 5-5 13 0 18l61 62c5 5 13 5 18 0 6-5 6-13 1-18z m-520 257c-4 0-7 2-9 4-5 5-5 14 0 19l63 63c5 5 14 5 19 0s5-14 0-19l-64-63c-3-3-6-4-9-4z m159 80c5-5 5-13 0-18l-143-144c-3-3-6-4-10-4s-6 1-9 4c-5 5-5 13 0 18l144 144c5 5 13 5 18 0z" horiz-adv-x="1000" />

<glyph glyph-name="hogar" unicode="&#xe905;" d="M980 828c-3 3-7 5-11 5h-938c-4 1-8-1-10-5-3-4-3-8-2-12l30-74v-826h78c6-35 36-62 73-62s67 27 73 62h446c6-35 36-62 73-62s67 27 73 62h85v825l30 75c3 4 2 8 0 12z m-30-20l-20-51h-859l-21 51h900z m-24-744h-267v667h267v-667z m-585 116h-266v97h266v-97z m0 123h-266v428h266v-428z m-266-149h266v-90h-266v90z m292 577h266v-667h-266v667z m-292-693h266v-97h-266v97z m125-158c-22 0-41 15-47 35h94c-6-20-24-35-47-35z m593 0c-23 0-41 15-47 35h93c-5-20-24-35-46-35z m-426 61v97h559v-97h-559z m-87 410v54c0 7 6 13 13 13s13-6 13-13v-54c0-7-6-13-13-13s-13 6-13 13z m-108-123c0 7 6 13 13 13h54c7 0 13-6 13-13s-6-13-13-13h-54c-7 0-13 6-13 13z m80-123c0-7-6-13-13-13h-54c-7 0-13 6-13 13s6 13 13 13h54c7 0 13-6 13-13z m-80-115c0 7 6 13 13 13h54c7 0 13-6 13-13s-6-13-13-13h-54c-7 0-13 6-13 13z m518 0c0-7-6-13-13-13h-54c-7 0-13 6-13 13s6 13 13 13h54c7 0 13-6 13-13z m-100 415v-54c0-7-6-13-13-13s-13 6-13 13v54c0 7 6 13 13 13s13-6 13-13z m113-54v54c0 7 6 13 13 13s13-6 13-13v-54c0-7-6-13-13-13s-13 6-13 13z" horiz-adv-x="1000" />

<glyph glyph-name="salud" unicode="&#xe906;" d="M730 631c-3 3-8 3-12 2l-110-34h-116c-49 16-209 57-312 63-111 8-164-65-166-68-2-2-3-5-3-8v-268c0-4 2-8 6-11l87-60c4-23 23-120 41-200 1-1 1-2 2-3 29-51 75-70 110-70 11 0 20 2 28 5 19 7 29 22 26 38-6 30-33 197-41 242l228 60h108l110-48c4-2 9-2 12 1s6 6 6 10v339c1 4-1 8-4 10z m-233-286c-1 0-2 0-3-1l-240-63c-7-2-11-8-9-15 1-9 35-219 42-254 1-5-6-9-9-10-25-9-76 1-107 53-21 90-42 201-42 202-1 3-3 6-6 8l-86 59v258c10 12 56 61 141 55 103-7 262-48 308-63 1-1 2-1 4-1h48v-228h-41z m213-43l-96 42c-1 0-3 1-5 1h-46v229h47c1 0 2 0 4 0l96 30v-302z m-495 226c-63 0-112-30-112-69s49-69 112-69c62 0 111 31 111 69s-49 69-111 69z m0-113c-51 0-87 23-87 44s36 44 87 44c51 0 86-23 86-44s-35-44-86-44z m568 137c23 28 45 41 67 40 17-1 28-10 38-18 8-7 17-14 30-18 16-6 42 18 48 29 3 6 10 9 17 6s9-11 6-17c-8-16-37-44-66-44-4 0-9 0-13 2-17 6-28 15-37 22-10 7-16 12-24 12-13 1-29-10-46-31-4-5-12-6-18-2-5 5-6 13-2 19z m205-84c-7-16-36-44-65-44-5 0-9 0-14 2-17 6-28 15-37 22-9 7-15 12-23 12-14 1-29-10-46-31-5-5-13-6-18-2s-7 13-2 18c22 28 44 41 67 40 16-1 27-10 38-18 8-6 16-13 29-18 16-5 43 18 48 29 3 7 11 9 17 6 7-2 9-10 6-16z m0-99c-7-15-36-44-65-44-5 0-9 1-14 2-17 6-28 15-37 22-9 8-15 12-23 13-14 0-29-10-46-31-5-6-13-7-18-2s-7 12-2 18c22 28 44 41 67 40 16-1 27-10 38-18 8-7 16-14 29-18 16-6 43 18 48 29 3 6 11 9 17 6 7-3 9-10 6-17z" horiz-adv-x="1000" />

<glyph glyph-name="deportes" unicode="&#xe907;" d="M207 361c-108 0-196-88-196-196s88-197 196-197 197 88 197 197-88 196-197 196z m0-368c-94 0-171 77-171 172s77 171 171 171c95 0 172-77 172-171s-77-172-172-172z m447 562c53 0 95 42 95 95s-42 95-95 95-95-43-95-95 43-95 95-95z m0 165c39 0 70-32 70-70s-31-70-70-70-70 31-70 70 32 70 70 70z m-340-563c0-54-45-99-99-99-7 0-13 6-13 13s6 12 13 12c40 0 74 33 74 74 0 7 5 13 12 13s13-6 13-13z m586 19c0-7-6-13-13-13s-12 6-12 13c0 40-33 74-74 74-7 0-13 5-13 12s6 13 13 13c54 0 99-45 99-99z m-107 185c-108 0-196-88-196-196s88-197 196-197c109 0 197 88 197 197s-88 196-197 196z m0-368c-94 0-171 77-171 172s77 171 171 171 172-77 172-171-77-172-172-172z m-331 394l66 66 81-58c2-2 4-3 7-3h154c4 0 20 0 33 11 9 9 14 21 14 36 0 37-30 50-50 50h-108l-86 87c-17 16-36 26-56 27-20 1-38-6-52-20-22-22-82-74-82-74 0 0-1-1-1-1 0 0-37-37-60-59-14-14-20-25-22-37-1-12 3-23 14-34 14-13 99-104 117-124v-175c0-16 6-43 50-43 25 0 38 20 42 31 0 1 0 2 0 3l23 226c0 4-1 7-4 10l-80 81z m37-313c-2-3-7-13-18-13-25 0-25 10-25 18v180c0 3-1 7-3 9-5 4-106 113-121 128-7 7-14 14 7 35 22 21 57 56 61 59 5 5 61 54 83 76 19 19 48 16 72-8l90-90c2-2 5-3 9-3h113c4 0 25-1 25-25 0-8-2-14-6-17-5-5-14-5-14-5-1 0-1 0-2 0h-150l-86 62c-5 3-12 3-17-2l-82-82c-5-5-5-13 0-18l85-86-21-218z" horiz-adv-x="1000" />

<glyph glyph-name="bebes" unicode="&#xe908;" d="M914 170c-17 17-41 27-68 28-10 78-64 149-148 194 58 44 92 105 92 169 0 28-6 56-19 82 25 20 39 50 41 83v1c0 61-50 110-111 110-41 0-78-22-97-57-34 11-72 16-109 16-37 0-72-5-104-14-20 34-56 56-96 56-61 0-111-50-111-111 0-31 12-59 34-80-13-27-20-56-20-85 0-66 34-127 94-172-88-48-141-123-146-206-24-3-45-12-61-28-25-25-34-64-24-109 10-42 35-86 71-122 46-46 105-74 156-74 0 0 0 0 0 0 30 0 56 10 74 28 9 9 16 20 21 32 35-9 71-14 109-14h8c42 0 82 6 120 17 5-8 10-15 16-22 19-18 44-28 74-28 11 0 23 2 35 4 43 10 86 35 122 71v0c78 78 99 180 47 231z m-89 28c-40-4-84-24-122-56 7 34 10 70 10 106 0 43-4 82-13 119 70-41 116-103 125-169z m-599 364c0 28 7 56 22 82l6 10-10 8c-20 15-32 39-32 65 0 46 37 83 83 83 33 0 63-20 76-51l5-11 12 4c33 11 69 17 107 17 39 0 78-7 112-19l13-5 5 13c12 31 42 52 76 52 46 0 83-37 83-83-2-28-15-53-38-69l-10-7 6-11c13-25 20-51 20-79 0-58-32-114-89-154l-2 1-6-6c-1-1-3-2-5-3-1 0-2-1-2-1-2-1-3-2-5-3-1 0-2-1-3-2l-11-5 0-1c-1 0-2 0-2-1-2-1-4-1-5-2-1-1-2-1-2-1l-1-1c0 0 0 0-1 0-2-1-5-2-7-4-1 0-1 0-1 0 16 19 26 42 26 67 0 33-17 65-46 88-29 21-66 32-104 32s-76-11-105-33c-30-23-47-54-47-87 0-25 10-49 26-68-16 6-31 14-45 23 0 0 0 0-1 1l-3 3c-1 1-2 1-3 2l-1 1c-58 39-91 95-91 155z m144-115c0 24 13 48 37 65 24 18 55 28 88 28s64-10 87-27c23-17 36-41 36-66 0-44-43-82-99-91-8 0-17-1-25-1s-17 1-26 1c-56 9-98 46-98 91z m-85-85v0l7 3c-8-37-12-77-12-118 0-39 4-78 12-115-40 31-84 50-125 52 5 70 48 134 118 178z m4-484c0 0 0 0 0 0-45 0-96 25-137 67-33 32-55 71-63 108-8 36-2 65 16 84 13 12 30 19 51 20 1 0 2 0 3 0 44 0 96-26 138-67 2-2 3-3 4-4l3-3 1-2 2-2c2-2 3-3 4-4s1-2 2-2v0c1-2 2-3 3-4 0 0 1-1 2-2s2-3 2-4c1-1 2-2 3-3l1-2c1-1 2-3 3-4l0-1c2-2 3-4 5-6 1-3 3-5 4-7 1-1 1-2 2-2 0-1 0-1 0-1v-1l2-4c1-1 1-1 2-2s1-2 1-3c1-2 2-3 3-5 0 0 0-1 1-2 0-1 1-2 1-4 1-1 1-2 2-3l0-1 1-1c0 0 1-1 1-1l1-3 0-1 4-12c1-1 1-3 1-4 1-2 1-4 2-5v-1c0-1 0-2 1-4v0c0-1 0-2 0-3 0 0 0-1 1-1v-5l1-1 1-8c0-3 0-5 0-8 0-8-1-15-2-22v0c-3-13-9-24-18-33-13-14-32-21-55-21z m212 47h-8c-35 0-69 5-102 13 0 5 1 10 1 15 0 1 0 2 0 3 0 1 0 3 0 5s0 2 0 4l-2 17c0 1-1 2-1 3v0c0 0 0 1-1 2 0 2 0 4-1 5 0 3-1 5-1 6-1 4-2 7-3 10l-5 14h-1c0 1 0 1-1 2v0c0 2-1 4-2 6-1 0-1 1-1 2l-1 1c0 1-1 1-1 2s-2 3-2 4l-1 2c-1 1-1 2-2 3 0 0 0 0-1 0v1l-2 3c0 1-1 2-2 3 0 2-1 3-2 4-3 5-6 10-9 15l-1 0c0 1-1 2-1 2-1 2-3 4-4 5-1 1-2 3-3 4-1 1-2 2-2 3-1 2-2 3-3 4-1 0-1 1-2 1-1 1-1 2-2 3v0c-1 2-2 3-4 4 0 0 0 0 0 0-15 48-22 99-22 150 0 43 4 84 14 123 4-3 9-5 14-8l1 0c1-1 2-1 2-2 2-1 3-1 5-2 9-4 18-8 28-11l9-3h1c1-1 3-1 5-2s4-1 6-2c19-5 39-9 61-11 6-1 13-2 19-2 7 0 14-1 21-1 7 0 14 1 22 2 6 0 13 1 21 2h1c1 0 5 1 7 1h1c2 0 5 0 7 1 2 0 4 0 6 1 4 0 7 1 12 2 1 0 1 0 2 1l2 0c2 1 3 1 5 1 2 1 3 1 5 2 1 0 2 0 3 0 2 1 5 2 8 3 1 1 2 1 3 1 2 1 4 1 5 2 1 0 2 0 4 1 1 0 1 0 2 1s3 1 4 1h1c1 1 3 1 5 2 1 1 2 1 4 2 0 0 1 0 2 1 0 0 0 0 1 0 1 1 1 1 2 1h1c3 1 6 3 9 4 1 1 2 1 3 1 2 1 4 2 7 4 2 1 5 2 7 3l3 2c2 0 3 1 4 2 2 1 5 3 8 4 10-38 15-80 15-125 0-50-7-99-19-143-4-4-7-8-10-13-6-8-11-15-15-22-2-2-3-5-4-6l-1-1c0-1-1-3-2-4s-1-2-1-2l-1-1 0-2c-1 0-1-1-1-2-1-1-2-3-3-5l-2-4c-2-5-4-11-6-16-1-1-1-1-1-2l-1-3c-1-1-1-2-1-3 0 0-1-1-1-2l-2-6v-1c0-1 0-3-1-5s-1-3-1-5c0-2-1-5-1-7-1-1-1-3-1-4 0-1 0-1 0-2v-1c-1-2-1-3-1-5 0-1 0-3 0-4v-1c-1-13 0-25 2-37-34-9-71-14-109-14z m347 33c-32-32-71-55-108-63-36-8-65-2-84 17-6 6-11 14-15 23-4 12-6 25-5 40v1c0 2 1 4 1 6 0 2 0 3 0 4 0 1 0 1 1 2 0 1 0 3 1 4 0 3 1 5 1 8 1 1 1 2 1 4l1 2v1l1 2c0 1 0 2 1 3 0 1 0 1 0 2s1 1 1 1l1 2c1 5 4 10 6 15l2 5c1 1 1 2 1 2 1 2 2 3 3 5 0 1 1 3 2 4l1 1c1 2 2 5 3 6l1 1c5 8 9 15 14 21 1 2 3 4 5 6 2 3 3 5 5 7 2 2 3 3 4 5 3 3 6 7 9 10 41 40 91 65 135 66 24 1 44-6 57-20 41-40 20-127-46-193z m-499 624v41c0 8 6 14 14 14s14-6 14-14v-41c0-7-6-14-14-14s-14 7-14 14z m268 0v41c0 8 6 14 14 14s14-6 14-14v-41c0-7-6-14-14-14s-14 7-14 14z m-69-179c-18-5-36-8-55-8-12 0-32 2-55 8-7 2-11 9-9 17s9 11 17 9c14-4 27-5 37-6v62c0 5 5 10 11 10s10-4 10-10v-62c13 1 25 3 38 6 7 2 15-2 17-9 1-8-3-15-11-17z" horiz-adv-x="1000" />

<glyph glyph-name="regla" unicode="&#xe955;" d="M596 750l-496-496c-50-50-50-125 0-175l129-129c50-50 125-50 175 0l496 496c50 50 50 125 0 175l-129 129c-50 50-125 50-175 0z m246-187c16-17 16-42 0-59l-496-496c-17-16-42-16-58 0l-130 130c-16 16-16 41 0 58l17 17 88-88c16-17 29-4 45 13 17 16 17 41 0 58l-75 71 46 46 75-75c17-17 42-17 59 0 16 16 16 41 0 58l-80 75 46 46 75-75c17-17 42-17 59 0 16 16 16 41 0 58l-75 75 41 42 75-75c17-17 42-17 59 0 16 16 16 41 0 58l-75 75 45 46 75-75c17-17 42-17 59 0 16 17 16 42 0 58l-75 75 16 17c17 17 42 17 59 0l125-133z" horiz-adv-x="1000" />

<glyph glyph-name="right-open-2" unicode="&#xf001;" d="M31 684q30 31 74 31t74-31l335-334-335-334q-31-31-74-31t-74 31-31 74 31 74l188 186-188 186q-31 32-31 74t31 74z" horiz-adv-x="514" />

<glyph glyph-name="left-open-2" unicode="&#xf002;" d="M481 684q32-31 32-74t-32-74l-186-186 186-186q32-31 32-74t-32-74-73-31-74 31l-334 334 334 334q30 31 74 31t73-31z" horiz-adv-x="513" />

<glyph glyph-name="up-dir" unicode="&#xf003;" d="M0 114l269 473 271-473-540 0z" horiz-adv-x="540" />

<glyph glyph-name="down-dir" unicode="&#xf004;" d="M540 587l-269-473-271 473 540 0z" horiz-adv-x="540" />

<glyph glyph-name="user-o" unicode="&#xf2c0;" d="M670 413q26-8 50-22t50-40 44-65 31-96 12-132q0-86-56-147t-134-61h-477q-78 0-134 61t-56 147q0 73 12 132t31 96 44 65 50 40 50 22q-44 69-44 151 0 58 23 111t61 91 91 61 111 23 110-23 92-61 61-91 22-111q0-82-44-151z m-241 366q-89 0-152-63t-63-152 63-151 152-63 151 63 63 151-63 152-151 63z m238-858q49 0 84 40t35 97q0 134-44 211t-126 80q-81-70-187-70t-188 70q-82-3-126-80t-44-211q0-57 35-97t84-40h477z" horiz-adv-x="857.1" />
</font>
</defs>
</svg>
